<svg width="77" height="56" viewBox="0 0 77 56" fill="none" xmlns="http://www.w3.org/2000/svg">
<path d="M11.55 24.125C15.797 24.125 19.25 20.6496 19.25 16.375C19.25 12.1004 15.797 8.625 11.55 8.625C7.30297 8.625 3.85 12.1004 3.85 16.375C3.85 20.6496 7.30297 24.125 11.55 24.125ZM65.45 24.125C69.697 24.125 73.15 20.6496 73.15 16.375C73.15 12.1004 69.697 8.625 65.45 8.625C61.203 8.625 57.75 12.1004 57.75 16.375C57.75 20.6496 61.203 24.125 65.45 24.125ZM69.3 28H61.6C59.4825 28 57.5695 28.8598 56.1739 30.2523C61.0225 32.9285 64.4634 37.7602 65.2094 43.5H73.15C75.2795 43.5 77 41.7684 77 39.625V35.75C77 31.4754 73.547 28 69.3 28ZM38.5 28C45.9473 28 51.975 21.9332 51.975 14.4375C51.975 6.9418 45.9473 0.875 38.5 0.875C31.0527 0.875 25.025 6.9418 25.025 14.4375C25.025 21.9332 31.0527 28 38.5 28ZM47.74 31.875H46.7414C44.2389 33.0859 41.4597 33.8125 38.5 33.8125C35.5403 33.8125 32.7731 33.0859 30.2586 31.875H29.26C21.6081 31.875 15.4 38.1234 15.4 45.825V49.3125C15.4 52.5215 17.9867 55.125 21.175 55.125H55.825C59.0133 55.125 61.6 52.5215 61.6 49.3125V45.825C61.6 38.1234 55.3919 31.875 47.74 31.875ZM20.8261 30.2523C19.4305 28.8598 17.5175 28 15.4 28H7.7C3.45297 28 0 31.4754 0 35.75V39.625C0 41.7684 1.72047 43.5 3.85 43.5H11.7786C12.5366 37.7602 15.9775 32.9285 20.8261 30.2523Z" fill="white"/>
</svg>
