<svg width="48" height="49" viewBox="0 0 48 49" fill="none" xmlns="http://www.w3.org/2000/svg">
<path d="M46.5695 27.5628H25.6322L39.576 42.6868C40.1089 43.2648 40.986 43.3117 41.5339 42.7519C44.9486 39.2625 47.2975 34.5587 47.9866 29.2711C48.1048 28.3658 47.4122 27.5628 46.5695 27.5628ZM45.1728 21.3613C44.4457 9.92856 36.0228 0.792741 25.4822 0.00414728C24.6775 -0.0561457 23.9998 0.679811 23.9998 1.55454V22.9691H43.7442C44.5507 22.9691 45.2283 22.2341 45.1728 21.3613ZM19.7645 27.5628V4.85342C19.7645 3.93946 19.0242 3.18819 18.1904 3.31643C7.67539 4.92807 -0.361969 14.8917 0.0121491 26.8326C0.396855 39.096 10.1319 49.1525 21.4436 48.9984C25.8907 48.9381 29.9998 47.3839 33.3783 44.7846C34.0754 44.2487 34.1213 43.1356 33.5169 42.4801L19.7645 27.5628Z" fill="white"/>
</svg>
