<svg width="39" height="52" viewBox="0 0 39 52" fill="none" xmlns="http://www.w3.org/2000/svg">
<path d="M17.496 50.9509C2.73914 29.5578 0 27.3623 0 19.5C0 8.73041 8.73041 0 19.5 0C30.2696 0 39 8.73041 39 19.5C39 27.3623 36.2609 29.5578 21.504 50.9509C20.5356 52.3498 18.4643 52.3497 17.496 50.9509ZM19.5 27.625C23.9873 27.625 27.625 23.9873 27.625 19.5C27.625 15.0127 23.9873 11.375 19.5 11.375C15.0127 11.375 11.375 15.0127 11.375 19.5C11.375 23.9873 15.0127 27.625 19.5 27.625Z" fill="white"/>
</svg>
