<svg width="19" height="19" viewBox="0 0 19 19" fill="none" xmlns="http://www.w3.org/2000/svg">
<path d="M9.58026 0.296875C4.49628 0.296875 0.377136 4.41602 0.377136 9.5C0.377136 14.584 4.49628 18.7031 9.58026 18.7031C14.6642 18.7031 18.7834 14.584 18.7834 9.5C18.7834 4.41602 14.6642 0.296875 9.58026 0.296875ZM14.0928 11.9158C14.2672 12.0902 14.2672 12.3723 14.0928 12.5467L12.6232 14.0125C12.4488 14.1869 12.1668 14.1869 11.9924 14.0125L9.58026 11.5781L7.16444 14.0125C6.99003 14.1869 6.708 14.1869 6.53358 14.0125L5.06776 12.543C4.89335 12.3686 4.89335 12.0865 5.06776 11.9121L7.50214 9.5L5.06776 7.08418C4.89335 6.90977 4.89335 6.62773 5.06776 6.45332L6.53729 4.98379C6.71171 4.80938 6.99374 4.80938 7.16815 4.98379L9.58026 7.42188L11.9961 4.9875C12.1705 4.81309 12.4525 4.81309 12.6269 4.9875L14.0965 6.45703C14.2709 6.63145 14.2709 6.91348 14.0965 7.08789L11.6584 9.5L14.0928 11.9158Z" fill="white"/>
</svg>
