<svg width="19" height="17" viewBox="0 0 19 17" fill="none" xmlns="http://www.w3.org/2000/svg">
<path d="M12.7657 2.76289L15.5844 5.75781C15.7032 5.88398 15.7032 6.08984 15.5844 6.21601L8.75945 13.4676L5.85945 13.8096C5.47195 13.8561 5.14382 13.5074 5.18757 13.0957L5.50945 10.0145L12.3344 2.76289C12.4532 2.63672 12.6469 2.63672 12.7657 2.76289ZM17.8282 2.00254L16.3032 0.382224C15.8282 -0.122464 15.0563 -0.122464 14.5782 0.382224L13.4719 1.55761C13.3532 1.68379 13.3532 1.88965 13.4719 2.01582L16.2907 5.01074C16.4094 5.13691 16.6032 5.13691 16.7219 5.01074L17.8282 3.83535C18.3032 3.32734 18.3032 2.50722 17.8282 2.00254ZM12.1844 11.4953V14.8754H2.18445V4.25039H9.3657C9.4657 4.25039 9.55945 4.20722 9.63132 4.13418L10.8813 2.80605C11.1188 2.55371 10.9501 2.12539 10.6157 2.12539H1.68445C0.856323 2.12539 0.184448 2.83926 0.184448 3.71914V15.4066C0.184448 16.2865 0.856323 17.0004 1.68445 17.0004H12.6844C13.5126 17.0004 14.1844 16.2865 14.1844 15.4066V10.1672C14.1844 9.81191 13.7813 9.63594 13.5438 9.88496L12.2938 11.2131C12.2251 11.2895 12.1844 11.3891 12.1844 11.4953Z" fill="white"/>
</svg>
