<svg width="33" height="33" viewBox="0 0 33 33" fill="none" xmlns="http://www.w3.org/2000/svg">
<path d="M22.3926 10.1129C21.4277 4.17157 19.1518 0 16.5033 0C13.8548 0 11.5789 4.17157 10.614 10.1129H22.3926ZM10.1149 16.5C10.1149 17.977 10.1948 19.3942 10.3345 20.7581H22.6655C22.8052 19.3942 22.8851 17.977 22.8851 16.5C22.8851 15.023 22.8052 13.6058 22.6655 12.2419H10.3345C10.1948 13.6058 10.1149 15.023 10.1149 16.5ZM31.7223 10.1129C29.8191 5.59536 25.9661 2.10242 21.2081 0.691935C22.8318 2.94073 23.9498 6.32722 24.5354 10.1129H31.7223ZM11.7919 0.691935C7.04053 2.10242 3.18088 5.59536 1.28433 10.1129H8.47126C9.05021 6.32722 10.1682 2.94073 11.7919 0.691935ZM32.4344 12.2419H24.8016C24.9413 13.6391 25.0212 15.0696 25.0212 16.5C25.0212 17.9304 24.9413 19.3609 24.8016 20.7581H32.4277C32.7937 19.3942 33 17.977 33 16.5C33 15.023 32.7937 13.6058 32.4344 12.2419ZM7.98548 16.5C7.98548 15.0696 8.06534 13.6391 8.20508 12.2419H0.572293C0.212946 13.6058 0 15.023 0 16.5C0 17.977 0.212946 19.3942 0.572293 20.7581H8.19843C8.06534 19.3609 7.98548 17.9304 7.98548 16.5ZM10.614 22.8871C11.5789 28.8284 13.8548 33 16.5033 33C19.1518 33 21.4277 28.8284 22.3926 22.8871H10.614ZM21.2148 32.3081C25.9661 30.8976 29.8258 27.4046 31.729 22.8871H24.542C23.9564 26.6728 22.8385 30.0593 21.2148 32.3081ZM1.28433 22.8871C3.18754 27.4046 7.04053 30.8976 11.7985 32.3081C10.1748 30.0593 9.05687 26.6728 8.47126 22.8871H1.28433Z" fill="#276955"/>
</svg>
