<svg width="29" height="29" viewBox="0 0 29 29" fill="none" xmlns="http://www.w3.org/2000/svg">
<path d="M14.5 0.453125C6.74267 0.453125 0.453125 6.74494 0.453125 14.5C0.453125 22.2596 6.74267 28.5469 14.5 28.5469C22.2573 28.5469 28.5469 22.2596 28.5469 14.5C28.5469 6.74494 22.2573 0.453125 14.5 0.453125ZM14.5 6.68359C15.8138 6.68359 16.8789 7.74866 16.8789 9.0625C16.8789 10.3763 15.8138 11.4414 14.5 11.4414C13.1862 11.4414 12.1211 10.3763 12.1211 9.0625C12.1211 7.74866 13.1862 6.68359 14.5 6.68359ZM17.6719 21.0703C17.6719 21.4457 17.3675 21.75 16.9922 21.75H12.0078C11.6325 21.75 11.3281 21.4457 11.3281 21.0703V19.7109C11.3281 19.3356 11.6325 19.0312 12.0078 19.0312H12.6875V15.4062H12.0078C11.6325 15.4062 11.3281 15.1019 11.3281 14.7266V13.3672C11.3281 12.9918 11.6325 12.6875 12.0078 12.6875H15.6328C16.0082 12.6875 16.3125 12.9918 16.3125 13.3672V19.0312H16.9922C17.3675 19.0312 17.6719 19.3356 17.6719 19.7109V21.0703Z" fill="#276955"/>
</svg>
