<svg width="24" height="24" viewBox="0 0 24 24" fill="none" xmlns="http://www.w3.org/2000/svg">
<path d="M18.9677 2.57619C22.0161 4.71904 24 8.2238 24 12.1905C24 18.7047 18.6387 23.9857 12.0242 24C5.41936 24.0143 0.00968625 18.7143 8.83143e-06 12.2095C-0.00482988 8.24285 1.97904 4.72857 5.02259 2.58095C5.58872 2.18571 6.37743 2.35238 6.71614 2.94762L7.48065 4.28571C7.76614 4.78571 7.63065 5.41904 7.1613 5.7619C5.15323 7.22856 3.87098 9.55237 3.87098 12.1857C3.86614 16.5809 7.47581 20.1905 12 20.1905C16.4323 20.1905 20.1581 16.6571 20.129 12.1381C20.1145 9.67142 18.9339 7.29047 16.8339 5.75714C16.3645 5.41428 16.2339 4.78095 16.5194 4.28571L17.2839 2.94762C17.6226 2.35714 18.4065 2.18095 18.9677 2.57619ZM13.9355 12.5714V1.14286C13.9355 0.509523 13.4177 0 12.7742 0H11.2258C10.5823 0 10.0645 0.509523 10.0645 1.14286V12.5714C10.0645 13.2047 10.5823 13.7143 11.2258 13.7143H12.7742C13.4177 13.7143 13.9355 13.2047 13.9355 12.5714Z" fill="#276955"/>
</svg>
