<svg width="44" height="33" viewBox="0 0 44 33" fill="none" xmlns="http://www.w3.org/2000/svg">
<path d="M43.1664 10.8969C43.5016 10.6305 44 10.8797 44 11.3008V28.875C44 31.1523 42.1523 33 39.875 33H4.125C1.84766 33 0 31.1523 0 28.875V11.3094C0 10.8797 0.489844 10.6391 0.833594 10.9055C2.75859 12.4008 5.31094 14.3 14.0766 20.668C15.8898 21.9914 18.9492 24.7758 22 24.7586C25.068 24.7844 28.1875 21.9398 29.932 20.668C38.6977 14.3 41.2414 12.3922 43.1664 10.8969ZM22 22C23.9937 22.0344 26.8641 19.4906 28.3078 18.4422C39.7117 10.1664 40.5797 9.44453 43.2094 7.38203C43.7078 6.99531 44 6.39375 44 5.75781V4.125C44 1.84766 42.1523 0 39.875 0H4.125C1.84766 0 0 1.84766 0 4.125V5.75781C0 6.39375 0.292187 6.98672 0.790625 7.38203C3.42031 9.43594 4.28828 10.1664 15.6922 18.4422C17.1359 19.4906 20.0063 22.0344 22 22Z" fill="#276955"/>
</svg>
