<svg width="18" height="18" viewBox="0 0 18 18" fill="none" xmlns="http://www.w3.org/2000/svg">
<path d="M14.2258 1.93214C16.5121 3.53928 18 6.16785 18 9.14285C18 14.0286 13.979 17.9893 9.01815 18C4.06452 18.0107 0.00726469 14.0357 6.62357e-06 9.15713C-0.00362241 6.18214 1.48428 3.54642 3.76694 1.93571C4.19154 1.63928 4.78307 1.76428 5.0371 2.21071L5.61049 3.21428C5.8246 3.58928 5.72299 4.06428 5.37097 4.32142C3.86492 5.42142 2.90323 7.16428 2.90323 9.13927C2.8996 12.4357 5.60686 15.1428 9 15.1428C12.3242 15.1428 15.1186 12.4928 15.0968 9.10356C15.0859 7.25356 14.2004 5.46785 12.6254 4.31785C12.2734 4.06071 12.1754 3.58571 12.3895 3.21428L12.9629 2.21071C13.2169 1.76786 13.8048 1.63571 14.2258 1.93214ZM10.4516 9.42856V0.857142C10.4516 0.382142 10.0633 0 9.58065 0H8.41936C7.9367 0 7.54839 0.382142 7.54839 0.857142V9.42856C7.54839 9.90356 7.9367 10.2857 8.41936 10.2857H9.58065C10.0633 10.2857 10.4516 9.90356 10.4516 9.42856Z" fill="white"/>
</svg>
