<svg width="18" height="18" viewBox="0 0 18 18" fill="none" xmlns="http://www.w3.org/2000/svg">
<path d="M17.4637 10.125H9.61217L14.8411 15.6808C15.0409 15.8931 15.3698 15.9104 15.5753 15.7047C16.8558 14.4229 17.7366 12.6949 17.9951 10.7525C18.0394 10.4199 17.7796 10.125 17.4637 10.125ZM16.9399 7.84683C16.6672 3.64701 13.5086 0.290962 9.55592 0.00127127C9.25416 -0.0208774 9.00004 0.249477 9.00004 0.570809V8.43746H16.4042C16.7066 8.43746 16.9607 8.16745 16.9399 7.84683ZM7.41181 10.125V1.78266C7.41181 1.44691 7.1342 1.17093 6.82152 1.21804C2.87841 1.81008 -0.135589 5.47024 0.00470465 9.85673C0.148969 14.3617 3.79958 18.056 8.04148 17.9994C9.70912 17.9772 11.25 17.4063 12.517 16.4514C12.7784 16.2545 12.7956 15.8457 12.5689 15.6048L7.41181 10.125Z" fill="white"/>
</svg>
