<svg width="20" height="18" viewBox="0 0 20 18" fill="none" xmlns="http://www.w3.org/2000/svg">
<path d="M0.484859 5.20402L9.58399 8.91892C9.84961 9.02755 10.15 9.02755 10.4156 8.91892L19.5148 5.20402C20.1612 4.94 20.1612 4.06075 19.5148 3.79673L10.416 0.0814722C10.2855 0.0277862 10.1437 0 10.0002 0C9.8567 0 9.71489 0.0277862 9.58438 0.0814722L0.484859 3.79638C-0.16162 4.0604 -0.16162 4.94 0.484859 5.20402ZM19.5151 8.30756L17.246 7.38191L10.932 9.95777C10.6367 10.0784 10.323 10.1395 10 10.1395C9.67696 10.1395 9.36368 10.0784 9.06798 9.95777L2.75437 7.38191L0.484859 8.30756C-0.16162 8.57123 -0.16162 9.45013 0.484859 9.71379L9.58399 13.4259C9.84961 13.5342 10.15 13.5342 10.4156 13.4259L19.5151 9.71379C20.1616 9.45013 20.1616 8.57123 19.5151 8.30756ZM19.5151 12.8005L17.2546 11.8783L10.932 14.4577C10.6367 14.5783 10.323 14.6395 10 14.6395C9.67696 14.6395 9.36368 14.5783 9.06798 14.4577L2.74577 11.8783L0.484859 12.8005C-0.16162 13.0641 -0.16162 13.943 0.484859 14.2067L9.58399 17.9188C9.84961 18.0271 10.15 18.0271 10.4156 17.9188L19.5151 14.2067C20.1616 13.943 20.1616 13.0641 19.5151 12.8005Z" fill="white"/>
</svg>
