<svg width="20" height="16" viewBox="0 0 20 16" fill="none" xmlns="http://www.w3.org/2000/svg">
<path d="M11.25 2.7725V2H11.875C12.2203 2 12.5 1.70167 12.5 1.33333V0.666667C12.5 0.298333 12.2203 0 11.875 0H8.125C7.77969 0 7.5 0.298333 7.5 0.666667V1.33333C7.5 1.70167 7.77969 2 8.125 2H8.75V2.7725C4.51133 3.42125 1.25 7.29917 1.25 12H18.75C18.75 7.29917 15.4887 3.42125 11.25 2.7725ZM19.375 13.3333H0.625C0.279687 13.3333 0 13.6317 0 14V15.3333C0 15.7017 0.279687 16 0.625 16H19.375C19.7203 16 20 15.7017 20 15.3333V14C20 13.6317 19.7203 13.3333 19.375 13.3333Z" fill="white"/>
</svg>
