<svg width="19" height="21" viewBox="0 0 19 21" fill="none" xmlns="http://www.w3.org/2000/svg">
<path d="M9.7059 10.5C12.6134 10.5 14.9698 8.1498 14.9698 5.25C14.9698 2.3502 12.6134 0 9.7059 0C6.79844 0 4.44204 2.3502 4.44204 5.25C4.44204 8.1498 6.79844 10.5 9.7059 10.5ZM13.3906 11.8125H12.7038C11.7909 12.2309 10.7751 12.4688 9.7059 12.4688C8.63668 12.4688 7.62503 12.2309 6.70797 11.8125H6.0212C2.9698 11.8125 0.494141 14.2816 0.494141 17.325V19.0312C0.494141 20.1182 1.37831 21 2.46809 21H16.9437C18.0335 21 18.9177 20.1182 18.9177 19.0312V17.325C18.9177 14.2816 16.442 11.8125 13.3906 11.8125Z" fill="white"/>
</svg>
