<svg width="33" height="33" viewBox="0 0 33 33" fill="none" xmlns="http://www.w3.org/2000/svg">
<path d="M31.8012 1.58621L25.0982 0.039368C24.3699 -0.128207 23.6223 0.252059 23.3258 0.935247L20.2321 8.15384C19.9614 8.78547 20.1419 9.52667 20.6768 9.95849L24.5826 13.1553C22.2623 18.0988 18.2083 22.2108 13.1617 24.5762L9.96492 20.6704C9.52665 20.1354 8.7919 19.955 8.16027 20.2257L0.941668 23.3193C0.252033 23.6223 -0.128232 24.3699 0.0393424 25.0982L1.58619 31.8012C1.74732 32.4973 2.36605 33 3.09436 33C19.6005 33 33 19.6263 33 3.09438C33 2.37252 32.5037 1.74734 31.8012 1.58621Z" fill="#276955"/>
</svg>
