<svg width="33" height="36" viewBox="0 0 33 36" fill="none" xmlns="http://www.w3.org/2000/svg">
<path d="M16.5 18C21.7078 18 25.9286 13.9711 25.9286 9C25.9286 4.02891 21.7078 0 16.5 0C11.2922 0 7.07143 4.02891 7.07143 9C7.07143 13.9711 11.2922 18 16.5 18ZM23.1 20.25H21.8699C20.2346 20.9672 18.4152 21.375 16.5 21.375C14.5848 21.375 12.7728 20.9672 11.1301 20.25H9.9C4.43437 20.25 0 24.4828 0 29.7V32.625C0 34.4883 1.58371 36 3.53571 36H29.4643C31.4163 36 33 34.4883 33 32.625V29.7C33 24.4828 28.5656 20.25 23.1 20.25Z" fill="#276955"/>
</svg>
