<svg width="49" height="48" viewBox="0 0 49 48" fill="none" xmlns="http://www.w3.org/2000/svg">
<path d="M1.18761 13.8766L23.4807 23.7832C24.1315 24.0728 24.8674 24.0728 25.5182 23.7832L47.8113 13.8766C49.3952 13.1725 49.3952 10.8278 47.8113 10.1238L25.5192 0.216286C25.1994 0.0731209 24.852 -0.000976562 24.5004 -0.000976562C24.1488 -0.000976562 23.8014 0.0731209 23.4816 0.216286L1.18761 10.1228C-0.396277 10.8269 -0.396277 13.1725 1.18761 13.8766ZM47.8123 22.1528L42.2529 19.6844L26.7834 26.5535C26.0599 26.875 25.2914 27.0382 24.4999 27.0382C23.7085 27.0382 22.9409 26.875 22.2165 26.5535L6.74796 19.6844L1.18761 22.1528C-0.396277 22.856 -0.396277 25.1997 1.18761 25.9028L23.4807 35.8019C24.1315 36.0907 24.8674 36.0907 25.5182 35.8019L47.8123 25.9028C49.3961 25.1997 49.3961 22.856 47.8123 22.1528ZM47.8123 34.1341L42.2739 31.675L26.7834 38.5535C26.0599 38.875 25.2914 39.0382 24.4999 39.0382C23.7085 39.0382 22.9409 38.875 22.2165 38.5535L6.72691 31.675L1.18761 34.1341C-0.396277 34.8372 -0.396277 37.181 1.18761 37.8841L23.4807 47.7832C24.1315 48.0719 24.8674 48.0719 25.5182 47.7832L47.8123 37.8841C49.3961 37.181 49.3961 34.8372 47.8123 34.1341Z" fill="white"/>
</svg>
