<svg width="61" height="50" viewBox="0 0 61 50" fill="none" xmlns="http://www.w3.org/2000/svg">
<path d="M48.8094 18.6529L48.0279 20.0494C47.742 20.567 47.132 20.7819 46.5887 20.5768C45.464 20.1471 44.4346 19.5319 43.5291 18.7604C43.0907 18.3893 42.9763 17.735 43.2623 17.2272L44.0438 15.8307C43.3862 15.0494 42.8715 14.1412 42.5284 13.1549H40.9557C40.3838 13.1549 39.8882 12.735 39.7929 12.149C39.6023 10.9772 39.5927 9.7467 39.7929 8.526C39.8882 7.94006 40.3838 7.51037 40.9557 7.51037H42.5284C42.8715 6.52404 43.3862 5.61584 44.0438 4.83459L43.2623 3.43811C42.9763 2.93029 43.0812 2.276 43.5291 1.9049C44.4346 1.13342 45.4735 0.518185 46.5887 0.0884971C47.132 -0.116581 47.742 0.0982627 48.0279 0.615841L48.8094 2.01232C49.8102 1.82678 50.8301 1.82678 51.8309 2.01232L52.6124 0.615841C52.8984 0.0982627 53.5084 -0.116581 54.0516 0.0884971C55.1763 0.518185 56.2057 1.13342 57.1112 1.9049C57.5496 2.276 57.664 2.93029 57.378 3.43811L56.5965 4.83459C57.2541 5.61584 57.7688 6.52404 58.1119 7.51037H59.6846C60.2565 7.51037 60.7521 7.93029 60.8474 8.51623C61.038 9.6881 61.0476 10.9186 60.8474 12.1393C60.7521 12.7252 60.2565 13.1549 59.6846 13.1549H58.1119C57.7688 14.1412 57.2541 15.0494 56.5965 15.8307L57.378 17.2272C57.664 17.735 57.5591 18.3893 57.1112 18.7604C56.2057 19.5319 55.1668 20.1471 54.0516 20.5768C53.5084 20.7819 52.8984 20.567 52.6124 20.0494L51.8309 18.6529C50.8396 18.8385 49.8102 18.8385 48.8094 18.6529ZM47.8087 12.9108C51.4782 15.8014 55.6624 11.5143 52.8412 7.75451C49.1716 4.85412 44.9874 9.15099 47.8087 12.9108ZM36.8191 27.9401L40.0312 29.5807C40.9938 30.1471 41.4132 31.3483 41.0319 32.4225C40.1837 34.7858 38.5157 36.9537 36.9716 38.8482C36.2663 39.7174 35.0463 39.9322 34.0837 39.3658L31.3101 37.7252C29.7851 39.0631 28.0123 40.1275 26.0774 40.8209V44.1022C26.0774 45.235 25.2863 46.2115 24.1998 46.4068C21.8551 46.817 19.396 46.8365 16.9655 46.4068C15.8694 46.2115 15.0593 45.2447 15.0593 44.1022V40.8209C13.1244 40.1178 11.3516 39.0631 9.82664 37.7252L7.05304 39.3561C6.09992 39.9225 4.87039 39.7076 4.16507 38.8385C2.62101 36.944 0.991168 34.776 0.142887 32.4225C-0.238363 31.358 0.181012 30.1568 1.14367 29.5807L4.31757 27.9401C3.94586 25.899 3.94586 23.7994 4.31757 21.7486L1.14367 20.0983C0.181012 19.5319 -0.247894 18.3307 0.142887 17.2662C0.991168 14.9029 2.62101 12.735 4.16507 10.8404C4.87039 9.97131 6.09039 9.75646 7.05304 10.3229L9.82664 11.9635C11.3516 10.6256 13.1244 9.56115 15.0593 8.86779V5.57678C15.0593 4.45373 15.8409 3.47717 16.9274 3.28186C19.2721 2.8717 21.7407 2.85217 24.1712 3.27209C25.2673 3.4674 26.0774 4.4342 26.0774 5.57678V8.85803C28.0123 9.56115 29.7851 10.6158 31.3101 11.9537L34.0837 10.3131C35.0368 9.7467 36.2663 9.96154 36.9716 10.8307C38.5157 12.7252 40.136 14.8932 40.9843 17.2565C41.3655 18.3209 40.9938 19.5221 40.0312 20.0983L36.8191 21.7389C37.1909 23.7897 37.1909 25.8893 36.8191 27.9401ZM25.6104 30.0006C31.2529 22.4811 22.8749 13.8971 15.5359 19.6783C9.89336 27.1979 18.2713 35.7818 25.6104 30.0006ZM48.8094 47.8424L48.0279 49.2389C47.742 49.7565 47.132 49.9713 46.5887 49.7662C45.464 49.3365 44.4346 48.7213 43.5291 47.9498C43.0907 47.5787 42.9763 46.9244 43.2623 46.4166L44.0438 45.0201C43.3862 44.2389 42.8715 43.3307 42.5284 42.3443H40.9557C40.3838 42.3443 39.8882 41.9244 39.7929 41.3385C39.6023 40.1666 39.5927 38.9361 39.7929 37.7154C39.8882 37.1295 40.3838 36.6998 40.9557 36.6998H42.5284C42.8715 35.7135 43.3862 34.8053 44.0438 34.024L43.2623 32.6275C42.9763 32.1197 43.0812 31.4654 43.5291 31.0943C44.4346 30.3229 45.4735 29.7076 46.5887 29.2779C47.132 29.0729 47.742 29.2877 48.0279 29.8053L48.8094 31.2018C49.8102 31.0162 50.8301 31.0162 51.8309 31.2018L52.6124 29.8053C52.8984 29.2877 53.5084 29.0729 54.0516 29.2779C55.1763 29.7076 56.2057 30.3229 57.1112 31.0943C57.5496 31.4654 57.664 32.1197 57.378 32.6275L56.5965 34.024C57.2541 34.8053 57.7688 35.7135 58.1119 36.6998H59.6846C60.2565 36.6998 60.7521 37.1197 60.8474 37.7057C61.038 38.8775 61.0476 40.108 60.8474 41.3287C60.7521 41.9147 60.2565 42.3443 59.6846 42.3443H58.1119C57.7688 43.3307 57.2541 44.2389 56.5965 45.0201L57.378 46.4166C57.664 46.9244 57.5591 47.5787 57.1112 47.9498C56.2057 48.7213 55.1668 49.3365 54.0516 49.7662C53.5084 49.9713 52.8984 49.7565 52.6124 49.2389L51.8309 47.8424C50.8396 48.0279 49.8102 48.0279 48.8094 47.8424ZM47.8087 42.0904C51.4782 44.9811 55.6624 40.694 52.8412 36.9342C49.1716 34.0436 44.9874 38.3307 47.8087 42.0904Z" fill="white"/>
</svg>
