<svg width="48" height="37" viewBox="0 0 48 37" fill="none" xmlns="http://www.w3.org/2000/svg">
<path d="M27 6.49309V4.71875H28.5C29.3288 4.71875 30 4.03352 30 3.1875V1.65625C30 0.810234 29.3288 0.125 28.5 0.125H19.5C18.6712 0.125 18 0.810234 18 1.65625V3.1875C18 4.03352 18.6712 4.71875 19.5 4.71875H21V6.49309C10.8272 7.98318 3 16.8903 3 27.6875H45C45 16.8903 37.1728 7.98318 27 6.49309ZM46.5 30.75H1.5C0.67125 30.75 0 31.4352 0 32.2812V35.3438C0 36.1898 0.67125 36.875 1.5 36.875H46.5C47.3288 36.875 48 36.1898 48 35.3438V32.2812C48 31.4352 47.3288 30.75 46.5 30.75Z" fill="white"/>
</svg>
