<svg width="24" height="26" viewBox="0 0 24 26" fill="none" xmlns="http://www.w3.org/2000/svg">
<path d="M23.6935 16.1242L21.5402 14.8347C21.7576 13.6185 21.7576 12.371 21.5402 11.1548L23.6935 9.86533C23.9411 9.71856 24.0523 9.41453 23.9715 9.13147C23.4104 7.26534 22.4551 5.57745 21.2066 4.17261C21.0145 3.9577 20.7012 3.90528 20.4585 4.05205L18.3053 5.34156C17.4006 4.53431 16.3593 3.91052 15.2322 3.50165V0.927868C15.2322 0.634321 15.035 0.377467 14.757 0.314564C12.902 -0.115273 11.0015 -0.0943054 9.23748 0.314564C8.95948 0.377467 8.76235 0.634321 8.76235 0.927868V3.50689C7.64024 3.921 6.59901 4.54479 5.68919 5.3468L3.54101 4.05729C3.29334 3.91052 2.98501 3.9577 2.79294 4.17786C1.54447 5.57745 0.589163 7.26534 0.0281093 9.13671C-0.0578179 9.41977 0.0584365 9.7238 0.306109 9.87058L2.45934 11.1601C2.242 12.3762 2.242 13.6238 2.45934 14.8399L0.306109 16.1294C0.0584365 16.2762 -0.0527633 16.5802 0.0281093 16.8633C0.589163 18.7294 1.54447 20.4173 2.79294 21.8221C2.98501 22.0371 3.29839 22.0895 3.54101 21.9427L5.69425 20.6532C6.59901 21.4605 7.64024 22.0842 8.76741 22.4931V25.0721C8.76741 25.3657 8.96453 25.6225 9.24253 25.6854C11.0975 26.1153 12.9981 26.0943 14.7621 25.6854C15.0401 25.6225 15.2372 25.3657 15.2372 25.0721V22.4931C16.3593 22.079 17.4006 21.4552 18.3104 20.6532L20.4636 21.9427C20.7113 22.0895 21.0196 22.0423 21.2117 21.8221C22.4601 20.4226 23.4155 18.7347 23.9765 16.8633C24.0523 16.575 23.9411 16.271 23.6935 16.1242ZM11.9973 17.1883C9.7682 17.1883 7.95362 15.3064 7.95362 12.9948C7.95362 10.6831 9.7682 8.80123 11.9973 8.80123C14.2263 8.80123 16.0409 10.6831 16.0409 12.9948C16.0409 15.3064 14.2263 17.1883 11.9973 17.1883Z" fill="#276955"/>
</svg>
