<svg width="39" height="52" viewBox="0 0 39 52" fill="none" xmlns="http://www.w3.org/2000/svg">
<path d="M35.75 -3.8147e-06H3.25C1.45539 -3.8147e-06 0 1.43778 0 3.21068V25.6855H39V3.21068C39 1.43778 37.5446 -3.8147e-06 35.75 -3.8147e-06ZM0 32.1068C0 35.6537 2.91078 38.5282 6.5 38.5282H13V44.9496C13 48.4964 15.9108 51.371 19.5 51.371C23.0892 51.371 26 48.4964 26 44.9496V38.5282H32.5C36.0892 38.5282 39 35.6537 39 32.1068V28.8962H0V32.1068ZM19.5 42.5416C20.8457 42.5416 21.9375 43.6192 21.9375 44.9496C21.9375 46.279 20.8457 47.3576 19.5 47.3576C18.1543 47.3576 17.0625 46.279 17.0625 44.9496C17.0625 43.6192 18.1543 42.5416 19.5 42.5416Z" fill="white"/>
</svg>
