<svg width="34" height="44" viewBox="0 0 34 44" fill="none" xmlns="http://www.w3.org/2000/svg">
<path d="M19.8333 11.6875V0H2.125C0.947396 0 0 0.919531 0 2.0625V41.9375C0 43.0805 0.947396 44 2.125 44H31.875C33.0526 44 34 43.0805 34 41.9375V13.75H21.9583C20.7896 13.75 19.8333 12.8219 19.8333 11.6875ZM25.5 31.9688C25.5 32.5359 25.0219 33 24.4375 33H9.5625C8.97812 33 8.5 32.5359 8.5 31.9688V31.2812C8.5 30.7141 8.97812 30.25 9.5625 30.25H24.4375C25.0219 30.25 25.5 30.7141 25.5 31.2812V31.9688ZM25.5 26.4688C25.5 27.0359 25.0219 27.5 24.4375 27.5H9.5625C8.97812 27.5 8.5 27.0359 8.5 26.4688V25.7812C8.5 25.2141 8.97812 24.75 9.5625 24.75H24.4375C25.0219 24.75 25.5 25.2141 25.5 25.7812V26.4688ZM25.5 20.2812V20.9688C25.5 21.5359 25.0219 22 24.4375 22H9.5625C8.97812 22 8.5 21.5359 8.5 20.9688V20.2812C8.5 19.7141 8.97812 19.25 9.5625 19.25H24.4375C25.0219 19.25 25.5 19.7141 25.5 20.2812ZM34 10.4758V11H22.6667V0H23.2068C23.7734 0 24.3135 0.214844 24.712 0.601562L33.3802 9.02344C33.7786 9.41016 34 9.93437 34 10.4758Z" fill="white"/>
</svg>
