<svg width="75" height="74" viewBox="0 0 75 74" fill="none" xmlns="http://www.w3.org/2000/svg">
<path d="M0 0H38C58.4345 0 75 16.5655 75 37V74H37C16.5655 74 0 57.4345 0 37V0Z" fill="#47B39C"/>
<path d="M48.5858 56.3065C46.969 56.4235 45.3425 56.4137 43.7256 56.4137C38.4856 56.4137 33.2358 56.404 27.9957 56.3942C26.4081 56.3942 24.8205 56.3163 23.2622 55.9753C22.5999 55.8291 21.9473 55.6343 21.3239 55.3712C19.5415 54.621 18.4994 53.2375 18.1974 51.3474C17.613 47.723 18.5091 44.4494 20.759 41.5654C22.6875 39.1005 25.2296 37.5903 28.2977 36.9765C28.6873 36.8985 29.0964 36.8596 29.4567 36.8011C29.8171 38.282 30.5768 39.5389 31.317 40.7957C32.5735 42.9392 33.976 44.995 35.4078 47.0312C35.4273 47.0605 35.4468 47.08 35.5052 47.1579C35.5344 46.8169 35.5539 46.5441 35.5734 46.2615C35.6708 44.8975 35.7584 43.5335 35.8656 42.1695C35.8753 42.0234 35.8461 41.9357 35.7097 41.8577C34.9792 41.4095 34.502 40.7762 34.3267 39.9189C34.3072 39.8117 34.3072 39.7045 34.2877 39.5584C36.2357 40.3476 38.1642 40.3476 40.1122 39.5584C40.0927 40.1527 39.8979 40.6691 39.5375 41.088C39.294 41.3803 38.9823 41.6141 38.6901 41.8577C38.583 41.9454 38.544 42.0039 38.5538 42.1403C38.6122 43.0171 38.6706 43.894 38.7291 44.7709C38.7778 45.5016 38.8362 46.2226 38.8849 46.9533C38.8849 47.002 38.8947 47.0605 38.9044 47.1384C38.9434 47.1092 38.9628 47.0994 38.9823 47.08C39.7907 45.9108 40.6089 44.7416 41.3881 43.5433V45.1411C41.3881 50.8213 45.7321 54.4944 48.5858 56.3065Z" fill="white"/>
<path d="M46.7453 21.8944C46.9498 21.9138 47.1446 21.9138 47.3296 21.9431C48.0212 22.0502 48.5471 22.703 48.4984 23.3948C48.4497 24.1255 47.8556 24.7101 47.1349 24.7101C44.0278 24.7101 40.9208 24.7101 37.8138 24.7101C34.3366 24.7101 30.8595 24.7101 27.3824 24.7101C26.7006 24.7101 26.1552 24.3009 25.9896 23.6773C25.7656 22.7907 26.3986 21.9528 27.3337 21.9138C27.4506 21.9138 27.5674 21.9138 27.7038 21.9138C27.7233 20.1309 28.181 18.4648 29.1161 16.9449C30.0511 15.4347 31.3173 14.2656 32.9244 13.4374C32.9925 13.7882 33.051 14.1292 33.1094 14.4605C33.3042 15.5906 33.499 16.7208 33.7036 17.8413C33.7717 18.2407 34.0445 18.4843 34.4048 18.5038C34.7165 18.5233 35.0184 18.3187 35.1061 18.0069C35.1451 17.8705 35.1548 17.7146 35.1256 17.5782C34.8529 15.9804 34.5704 14.3923 34.2782 12.7944C34.2393 12.5995 34.2782 12.4534 34.4146 12.3073C34.7652 11.9273 35.184 11.6642 35.7002 11.6545C36.7327 11.635 37.7748 11.6252 38.8073 11.6642C39.3527 11.6837 39.791 11.9955 40.1027 12.4437C40.1514 12.5216 40.1514 12.6483 40.1416 12.7554C39.8592 14.3825 39.5767 16.0096 39.2942 17.6367C39.2163 18.0556 39.4696 18.4064 39.8884 18.4746C40.278 18.5428 40.6383 18.2894 40.7163 17.8802C40.9695 16.487 41.213 15.084 41.4565 13.6908C41.4662 13.6128 41.4857 13.5251 41.5149 13.3985C44.8362 15.2886 46.5699 18.0946 46.7453 21.8944Z" fill="white"/>
<path d="M45.498 26.1228C45.8779 26.1228 46.248 26.1228 46.6473 26.1228C46.6181 26.4054 46.5889 26.6782 46.5499 26.951C46.2675 28.9288 45.722 30.8287 44.7968 32.6019C43.9299 34.2679 42.8098 35.7197 41.2612 36.7914C39.9366 37.7072 38.4659 38.1846 36.849 38.0969C35.5731 38.0287 34.4141 37.6098 33.3427 36.9083C31.7648 35.8755 30.6253 34.4433 29.7389 32.8065C28.7844 31.043 28.2098 29.1626 27.9176 27.1848C27.8689 26.8438 27.8202 26.493 27.7715 26.1228C28.1708 26.1228 28.5409 26.1228 28.9208 26.1228C28.9987 26.6294 29.0571 27.1458 29.1545 27.6427C29.6123 30.0395 30.4889 32.2511 32.1252 34.1121C33.0115 35.1253 34.0634 35.9145 35.3588 36.3335C37.2386 36.9375 38.9918 36.6355 40.6281 35.5735C42.0209 34.6674 43.0144 33.4008 43.7936 31.9491C44.6604 30.322 45.1766 28.578 45.4104 26.7561C45.4201 26.6489 45.4396 26.5418 45.4493 26.4248C45.4688 26.3372 45.4785 26.23 45.498 26.1228Z" fill="white"/>
<path d="M61.3157 37.7267L53.2608 34.9889C53.0173 34.9012 52.7641 34.9012 52.5206 34.9889L44.4657 37.7267C43.9982 37.8826 43.6865 38.321 43.6865 38.8179V44.9852C43.6865 52.5068 52.0823 56.1702 52.4427 56.3163C52.7349 56.4332 53.0563 56.4332 53.3387 56.3163C53.6991 56.1604 62.0949 52.5068 62.0949 44.9852V38.8179C62.0949 38.321 61.7832 37.8826 61.3157 37.7267ZM57.9262 43.5433L53.7089 48.9116C53.1732 49.5937 52.17 49.7008 51.5076 49.126L48.8194 46.8266C48.1766 46.2713 48.0987 45.3067 48.6539 44.6637C49.209 44.0207 50.1733 43.9427 50.8161 44.4981L52.2868 45.7549L55.5205 41.6434C56.0464 40.9809 57.0107 40.8639 57.673 41.3901C58.3353 41.9162 58.4522 42.8807 57.9262 43.5433Z" fill="white"/>
</svg>
