<svg width="18" height="18" viewBox="0 0 18 18" fill="none" xmlns="http://www.w3.org/2000/svg">
<path d="M12.4394 5.51613C11.9423 2.2754 10.7699 0 9.40552 0C8.04113 0 6.86872 2.2754 6.37164 5.51613H12.4394ZM6.11454 9C6.11454 9.80564 6.15567 10.5786 6.22766 11.3226H12.58C12.6519 10.5786 12.6931 9.80564 12.6931 9C12.6931 8.19436 12.6519 7.42137 12.58 6.67742H6.22766C6.15567 7.42137 6.11454 8.19436 6.11454 9ZM17.2456 5.51613C16.2652 3.05202 14.2803 1.14677 11.8292 0.377419C12.6657 1.60403 13.2416 3.45121 13.5433 5.51613H17.2456ZM6.97842 0.377419C4.53075 1.14677 2.54245 3.05202 1.56543 5.51613H5.26779C5.56604 3.45121 6.14196 1.60403 6.97842 0.377419ZM17.6124 6.67742H13.6804C13.7524 7.43952 13.7935 8.21976 13.7935 9C13.7935 9.78024 13.7524 10.5605 13.6804 11.3226H17.609C17.7975 10.5786 17.9038 9.80564 17.9038 9C17.9038 8.19436 17.7975 7.42137 17.6124 6.67742ZM5.01754 9C5.01754 8.21976 5.05868 7.43952 5.13067 6.67742H1.19863C1.01351 7.42137 0.903809 8.19436 0.903809 9C0.903809 9.80564 1.01351 10.5786 1.19863 11.3226H5.12724C5.05868 10.5605 5.01754 9.78024 5.01754 9ZM6.37164 12.4839C6.86872 15.7246 8.04113 18 9.40552 18C10.7699 18 11.9423 15.7246 12.4394 12.4839H6.37164ZM11.8326 17.6226C14.2803 16.8532 16.2686 14.948 17.249 12.4839H13.5467C13.245 14.5488 12.6691 16.396 11.8326 17.6226ZM1.56543 12.4839C2.54587 14.948 4.53075 16.8532 6.98185 17.6226C6.14539 16.396 5.56947 14.5488 5.26779 12.4839H1.56543Z" fill="white"/>
</svg>
